<svg id="Capa_1" data-name="Capa 1" xmlns="http://www.w3.org/2000/svg" viewBox="0 0 41.35 36.36"><defs><style>.cls-1{fill:#010101;}.cls-2{fill:#fff;}</style></defs><rect class="cls-1" x="6.05" y="3.54" width="29.24" height="29.24" rx="7.65" transform="translate(38.83 -2.52) rotate(90)"/><ellipse class="cls-2" cx="20.69" cy="17.93" rx="10.77" ry="10.63"/><path class="cls-1" d="M19.62,4.77A12.58,12.58,0,0,0,15.44,6a12.07,12.07,0,0,0-4.8,4.44,10.41,10.41,0,0,0-.91,1.83,12,12,0,0,0,1,10.57,12.15,12.15,0,0,0,5.84,5c.43.16.67.25,1.27.42.08,0,.09-.1.09-1.93V24.34l-.2,0a2.86,2.86,0,0,1-2.4-.73,5.15,5.15,0,0,1-.51-.61,3.89,3.89,0,0,0-.43-.56,1.41,1.41,0,0,0-.76-.44c-.06,0-.11,0-.11-.06s0-.34-.06-.69l-.06-.63h.21a2.47,2.47,0,0,1,1,.26A3.67,3.67,0,0,1,16,22.28a1.67,1.67,0,0,0,.67.63,1.81,1.81,0,0,0,1.09,0c.21-.06.22-.07.27-.3a3.25,3.25,0,0,1,.52-1.09,1.82,1.82,0,0,0,.21-.32,2.17,2.17,0,0,0-.42-.1,9.27,9.27,0,0,1-1.8-.59,5,5,0,0,1-2.25-2.15A5.31,5.31,0,0,1,14,14.18,4.5,4.5,0,0,1,14.65,13l.25-.37-.08-.32a4.59,4.59,0,0,1,.1-2.38c.11-.35.11-.36.23-.34l.4.06a4.88,4.88,0,0,1,2,.83c.58.34.51.33,1.33.15a9.58,9.58,0,0,1,4.15.1l.29.07.43-.25a5.88,5.88,0,0,1,2.39-.95l.21,0,.12.36a4.66,4.66,0,0,1,.09,2.37l-.07.32.26.42a5.11,5.11,0,0,1-1.88,7.54,9.74,9.74,0,0,1-1.8.59,2.16,2.16,0,0,0-.43.1,2.89,2.89,0,0,0,.23.35,3.49,3.49,0,0,1,.35.56c.23.5.25.67.25,3.47,0,2.46,0,2.61.08,2.59.6-.17.84-.26,1.27-.42a12.09,12.09,0,0,0,6.32-5.87,11.85,11.85,0,0,0,.52-9.68,10.17,10.17,0,0,0-.91-1.84,11.9,11.9,0,0,0-4-4,10.51,10.51,0,0,0-1.84-.91A11.82,11.82,0,0,0,19.62,4.77Z"/></svg>