<svg id="Capa_1" data-name="Capa 1" xmlns="http://www.w3.org/2000/svg" viewBox="0 0 41.35 36.36"><defs><style>.cls-1{fill:#010101;}.cls-2{fill:#fff;}</style></defs><rect class="cls-1" x="6.05" y="3.56" width="29.24" height="29.24" rx="7.65" transform="translate(38.85 -2.5) rotate(90)"/><path class="cls-2" d="M25.21,12.67a1,1,0,1,0,1,1A1,1,0,0,0,25.21,12.67Z"/><path class="cls-2" d="M20.74,14A4.22,4.22,0,1,0,25,18.18,4.23,4.23,0,0,0,20.74,14Zm0,6.92a2.71,2.71,0,1,1,2.71-2.7A2.7,2.7,0,0,1,20.74,20.88Z"/><path class="cls-2" d="M24.1,26.75H17.25A5.16,5.16,0,0,1,12.1,21.6V14.76a5.16,5.16,0,0,1,5.15-5.15H24.1a5.16,5.16,0,0,1,5.15,5.15V21.6A5.16,5.16,0,0,1,24.1,26.75ZM17.25,11.22a3.55,3.55,0,0,0-3.54,3.54V21.6a3.55,3.55,0,0,0,3.54,3.54H24.1a3.54,3.54,0,0,0,3.53-3.54V14.76a3.54,3.54,0,0,0-3.53-3.54Z"/></svg>