<svg id="Capa_1" data-name="Capa 1" xmlns="http://www.w3.org/2000/svg" viewBox="0 0 41.35 36.36"><defs><style>.cls-1{fill:#010101;}.cls-2{fill:#fff;}</style></defs><rect class="cls-1" x="6.05" y="3.56" width="29.24" height="29.24" rx="7.65" transform="translate(38.85 -2.5) rotate(90)"/><path class="cls-2" d="M28.75,13.17a6.33,6.33,0,0,1-1.61.46c.26-.05.64-.51.79-.7a2.85,2.85,0,0,0,.54-1s0-.06,0-.08-.05,0-.08,0a7.77,7.77,0,0,1-1.91.73.14.14,0,0,1-.14,0,1.29,1.29,0,0,0-.16-.17,3.58,3.58,0,0,0-.93-.57,3.29,3.29,0,0,0-1.42-.23,3.37,3.37,0,0,0-1.35.38,3.33,3.33,0,0,0-1.08.89,3.25,3.25,0,0,0-.65,1.3,3.33,3.33,0,0,0,0,1.37c0,.08,0,.09-.06.08a10.19,10.19,0,0,1-6.57-3.34c-.08-.09-.12-.09-.19,0a3.35,3.35,0,0,0,.57,3.94c.13.12.26.24.41.36a3.3,3.3,0,0,1-1.27-.36c-.08,0-.12,0-.12.07a1.56,1.56,0,0,0,0,.37A3.26,3.26,0,0,0,16,19.48a4.1,4.1,0,0,1-1.24,0c-.09,0-.12,0-.09.11a3.51,3.51,0,0,0,2.61,2.19c.12,0,.24,0,.36.05s0,0,0,0a4.17,4.17,0,0,1-1.79.94,6.4,6.4,0,0,1-2.71.35c-.14,0-.17,0-.21,0s0,.06,0,.1a6.32,6.32,0,0,0,.56.33,9.23,9.23,0,0,0,1.82.73,9.63,9.63,0,0,0,9.36-2.19A9.83,9.83,0,0,0,27.26,15c0-.11.13-.16.2-.22a6.12,6.12,0,0,0,1.27-1.32.41.41,0,0,0,.09-.26h0S28.82,13.14,28.75,13.17Z"/></svg>